<?xml version="1.0" encoding="utf-8"?>
<!-- Generator: Adobe Illustrator 19.2.0, SVG Export Plug-In . SVG Version: 6.00 Build 0)  -->
<svg version="1.1" id="Layer_1" xmlns="http://www.w3.org/2000/svg" xmlns:xlink="http://www.w3.org/1999/xlink" x="0px" y="0px"
	 viewBox="0 0 1024 256" style="enable-background:new 0 0 1024 256;" xml:space="preserve">
<style type="text/css">
	.st0{fill:#1976BC;}
</style>
<g>
	<path class="st0" d="M269.3,159.4c10,9.3,19.4,14,28.3,14c4.5,0,8.4-1.5,11.6-4.4c3.2-2.9,4.8-6.5,4.8-10.6c0-3.4-1.1-6.3-3.4-8.9
		c-2.4-2.6-6.8-5.5-13.2-8.8c-9.1-4.5-16-9.5-20.8-15c-4.8-5.5-7.3-12.5-7.3-21c0-10.8,3.8-19.9,11.4-27.3
		c7.6-7.4,17.6-11.1,30.1-11.1c8.6,0,20.3,2.3,29.5,6.9v31c-8.2-7.9-18.9-11.8-26.4-11.8c-3.7,0-6.9,1.1-9.7,3.4s-4.1,4.9-4.1,8.1
		c0,3.1,1.1,5.8,3.3,8c2.2,2.2,6.2,4.7,12.1,7.3c9.7,4.3,17.1,9.3,22.1,14.9c5,5.6,7.5,13.2,7.5,22.8c0,12-4.3,22.3-13,30.8
		c-8.7,8.5-19.2,12.7-31.7,12.7c-9.7,0-20.1-2.9-31.3-8.7V159.4z"/>
	<path class="st0" d="M355.2,109.5h29.4v54.9c0,3.4,0.5,5.9,1.4,7.6c1,1.7,2.4,2.6,4.2,2.6c2.2,0,4-1,5.4-2.9c1.5-2,2.2-4.4,2.2-7.2
		v-54.9h30v88.7h-30l1.7-8.8c-2.9,3.6-6,6.3-9.4,8.1s-6.9,2.7-10.7,2.7c-7.1,0-12.9-2.9-17.5-8.7c-4.6-5.8-6.9-12.9-6.9-21.5V109.5z
		"/>
	<path class="st0" d="M470,118.7c2.6-3.8,5.6-6.6,8.9-8.5c3.3-1.9,7-2.8,11.1-2.8c7,0,12.9,2.6,17.6,7.7c4.7,5.1,7,11.5,7,19.1v63.9
		H485v-57.8c0-5-1.9-7.5-5.6-7.5c-2.6,0-4.7,1.4-6.2,4.1c-1.6,2.7-2.3,6.5-2.3,11.4v49.8h-29.2v-88.7h29.2L470,118.7z"/>
	<path class="st0" d="M524.9,159.4c10,9.3,19.4,14,28.3,14c4.5,0,8.4-1.5,11.6-4.4c3.2-2.9,4.8-6.5,4.8-10.6c0-3.4-1.1-6.3-3.4-8.9
		c-2.4-2.6-6.8-5.5-13.2-8.8c-9.1-4.5-16-9.5-20.8-15c-4.8-5.5-7.3-12.5-7.3-21c0-10.8,3.8-19.9,11.4-27.3
		c7.6-7.4,17.6-11.1,30.1-11.1c8.6,0,17.5,2.3,26.7,6.9v31c-8.2-7.9-16-11.8-23.5-11.8c-3.7,0-6.9,1.1-9.7,3.4
		c-2.7,2.2-4.1,4.9-4.1,8.1c0,3.1,1.1,5.8,3.3,8c2.2,2.2,6.2,4.7,12.1,7.3c9.7,4.3,17.1,9.3,22.1,14.9c5,5.6,7.5,13.2,7.5,22.8
		c0,12-4.3,22.3-13,30.8c-8.7,8.5-19.2,12.7-31.7,12.7c-9.7,0-20.1-2.9-31.3-8.7V159.4z"/>
	<path class="st0" d="M602.7,109.5h31.5l8.7,59l8.1-59h30.5l-23.7,88.7c-3.7,13.8-7,23.1-9.8,28.1c-2.8,5-6.3,8.7-10.6,11.4
		c-4.3,2.6-9.1,3.9-14.3,3.9c-5.1,0-15.6,0-15.6,0v-25.2c0,0,5.5,1.6,7.9,1.6c3.7,0,6.3-1.5,7.9-4.4c1.6-2.9,3.1-7.5,4.5-13.7
		L602.7,109.5z"/>
	<path class="st0" d="M684,165.5c9.5,7.8,17.7,11.7,24.7,11.7c2.7,0,5-0.7,6.9-2.1c1.9-1.4,2.9-3.2,2.9-5.5c0-1.7-0.8-3.2-2.3-4.4
		c-1.5-1.2-4.4-2.6-8.5-4.2c-9.9-3.8-16.3-8-19.3-12.6c-2.9-4.5-4.4-9-4.4-13.5c0-8.2,3.4-14.9,10.2-19.9c6.8-5,15.1-7.5,24.8-7.5
		c8.4,0,16.8,1.9,25,5.8v26.3c-6.9-6-13.5-8.9-19.8-8.9c-2.9,0-5,0.5-6.4,1.4c-1.4,0.9-2.1,2.4-2.1,4.3c0,2.6,3.1,4.9,9.2,6.9
		c16.7,5.5,25,14.4,25,26.5c0,8.6-3.4,15.8-10.3,21.7c-6.9,5.9-15.7,8.8-26.5,8.8c-9.1,0-18.8-2.6-29.1-7.7V165.5z"/>
	<path class="st0" d="M763.7,82.8h30v26.7H807v21.7h-13.4v36.3c0,5.6,2.2,8.4,6.7,8.4c2.2,0,4.4-0.8,6.7-2.5v24
		c-5.5,1.9-11,2.9-16.7,2.9c-9.2,0-15.9-2.2-20.2-6.6c-4.3-4.4-6.5-11.1-6.5-20.3v-42.1h-10.9v-21.7h10.9V82.8z"/>
	<path class="st0" d="M891,190.6c-11.4,6.4-25.5,9.6-35.3,9.6c-12.8,0-23.2-4.3-31.2-12.9c-8-8.6-12-19.7-12-33.1
		c0-13,3.8-24.1,11.3-33.1c7.5-9.1,17.6-13.6,30.2-13.6c11.2,0,20.1,3.9,26.8,11.6c6.7,7.8,10.1,18.1,10.1,31.2v7.3h-47.7
		c1.4,6,3.7,10.4,7,13.4c3.3,3,7.6,4.5,12.8,4.5c9.1,0,22.5-6.6,28-12.4V190.6z M865.2,141.9v-3c0-4-1.1-7.5-3.2-10.3
		c-2.1-2.9-4.8-4.3-7.9-4.3c-3.7,0-6.6,1.5-8.6,4.4c-2,2.9-3.2,7.3-3.5,13.2H865.2z"/>
	<path class="st0" d="M970.5,121.8c2.8-4.8,6.1-8.4,9.8-10.7c3.7-2.4,8-3.6,12.7-3.6c7.6,0,13.8,2.8,18.4,8.5
		c4.6,5.7,6.9,13,6.9,21.9v60.3h-29.6v-54.5c0-6.9-2-10.4-6-10.4c-2.7,0-4.8,1.3-6.1,3.9c-1.4,2.6-2,6.5-2,11.7v49.4h-29.3v-54.5
		c0-6.9-2-10.4-5.9-10.4c-2.4,0-4.4,1.3-5.9,4s-2.2,5.9-2.2,9.8v51.2h-29.1v-88.7h29.1l-0.9,9.6c2.6-3.9,5.6-6.8,8.9-8.7
		s7.1-2.9,11.3-2.9C959.5,107.4,966.1,112.2,970.5,121.8z"/>
	<path class="st0" d="M562.9,52.7c0,0-58.1-36.5-129.7-36.5S303.5,52.7,303.5,52.7s58.1-16.4,129.7-16.4S562.9,52.7,562.9,52.7z"/>
	<g>
		<circle class="st0" cx="158.3" cy="88" r="15.5"/>
		<circle class="st0" cx="81.6" cy="88" r="15.5"/>
		<path class="st0" d="M64.9,187.9c-4.3,0-8.3-2.9-9.5-7.3c-3.2-11.9-9-41.4,5-58.3c4.4-5.3,12.7-11.5,26.9-10.3
			c19.3,1.5,24.2,19.5,27.8,32.7c4.8,17.5,7,20.1,15.7,18.5c2.5-0.5,6-2.7,10.1-16c1.6-5.2,7.1-8.1,12.2-6.5
			c5.2,1.6,8.1,7.1,6.5,12.2c-2.4,7.8-8.1,26.2-25.1,29.4c-27.9,5.3-34.3-18.4-38.2-32.5c-3.6-13.2-5.7-17.9-10.5-18.3
			c-6.4-0.5-9,1.7-10.4,3.4c-5.4,6.5-5.9,22.9-1.1,40.8c1.4,5.2-1.7,10.6-6.9,12C66.6,187.8,65.7,187.9,64.9,187.9z"/>
		<g>
			<path class="st0" d="M153.2,140.6c-1-0.3-1.9-0.4-2.9-0.4c-1.5,0-2.9,0.5-4.2,1.1c-2.3,1.1-4.3,3.1-5.1,5.8
				c-4.1,13.3-7.5,15.5-10.1,16c-1.4,0.3-2.6,0.4-3.7,0.4c-3.2,0-5.3-1.4-7.2-5.1c-1.5-2.9-2.9-7.3-4.7-13.8
				c-3.6-13.2-8.5-31.2-27.8-32.7c-1.1-0.1-2.2-0.1-3.3-0.1c-12.2,0-19.6,5.6-23.6,10.5c-14,16.9-8.2,46.4-5,58.3
				c1.2,4.4,5.1,7.3,9.5,7.3c0.8,0,1.7-0.1,2.5-0.3c5.2-1.4,8.3-6.8,6.9-12c-4.8-17.8-4.3-34.2,1.1-40.8c1.3-1.5,3.5-3.4,8.7-3.4
				c0.5,0,1.1,0,1.7,0.1c3.5,0.3,5.6,3,7.9,9.7c0.8,2.4,1.6,5.2,2.6,8.6c3,11.1,7.7,28.2,23.2,32.4c2.2,0.6,4.7,0.9,7.4,0.9
				c2.3,0,4.9-0.2,7.6-0.8c17-3.2,22.7-21.6,25.1-29.4C161.2,147.7,158.3,142.2,153.2,140.6z"/>
			<path class="st0" d="M91.5,151.1c-0.7-2.6-2-7.4-3.4-10.8c-0.2,0-0.3,0-0.5,0c-5.3,1.1-8.7,6.3-7.6,11.6
				c3.7,17.9,12.3,28.2,25.6,30.4c1.2,0.2,2.4,0.3,3.5,0.4C98,174.9,94,160.2,91.5,151.1z"/>
			<path class="st0" d="M179.5,122.3c-4.4-5.3-12.7-11.5-26.9-10.3c-19.3,1.5-24.2,19.4-27.8,32.4c-0.8,2.8-1.5,5.2-2.2,7.3
				c2.1,6.2,3.3,6.8,4.6,6.8c0.7,0,1.6-0.1,2.8-0.3c0,0,2.5-0.6,6.2-12.5c1.8-5.7,6.7-9.7,12.5-10.3c1.5-2.5,3.1-3.6,5.4-3.8
				c6.4-0.5,9,1.7,10.4,3.4c5.4,6.5,5.9,22.9,1.1,40.8c-1.4,5.2,1.7,10.6,6.9,12c0.8,0.2,1.7,0.3,2.5,0.3c4.3,0,8.3-2.9,9.5-7.3
				C187.6,168.7,193.5,139.2,179.5,122.3z"/>
		</g>
		<path class="st0" d="M119.9,241.6c-62.6,0-113.6-51-113.6-113.6c0-62.6,51-113.6,113.6-113.6c62.6,0,113.6,51,113.6,113.6
			C233.5,190.6,182.6,241.6,119.9,241.6z M119.9,33.5c-52.1,0-94.5,42.4-94.5,94.5s42.4,94.5,94.5,94.5s94.5-42.4,94.5-94.5
			S172,33.5,119.9,33.5z"/>
	</g>
</g>
</svg>
